<svg width="1080" height="1080" viewBox="0 0 1080 1080" fill="none" xmlns="http://www.w3.org/2000/svg">
<path d="M523.557 271.887C533.506 266.082 545.808 266.073 555.766 271.863L1031.92 548.696C1053.25 561.099 1080 545.708 1080 521.032V332.912C1080 321.516 1073.94 310.981 1064.09 305.251L555.428 9.37611C545.466 3.58145 533.157 3.59124 523.204 9.40181L15.8662 305.592C6.04085 311.328 0 321.85 0 333.227V521.632C0 546.33 26.793 561.718 48.126 549.272L523.557 271.887Z" fill="#F1F5F9"/>
<path d="M977.312 883.082C987.349 888.929 999.766 888.877 1009.75 882.947L1064.34 850.541C1074.05 844.776 1080 834.318 1080 823.025V698.719C1080 687.329 1073.95 676.798 1064.1 671.066L555.432 374.858C545.468 369.056 533.153 369.062 523.196 374.876L15.8662 671.06C6.04085 676.797 0 687.318 0 698.696V823.596C0 834.958 6.02462 845.468 15.8289 851.209L70.2758 883.095C80.2529 888.938 92.6061 888.944 102.589 883.111L523.191 637.381C533.151 631.562 545.471 631.554 555.439 637.359L977.312 883.082Z" fill="#F1F5F9"/>
<path d="M523.528 1009.5C533.491 1003.67 545.823 1003.66 555.799 1009.47L660.819 1070.63C670.76 1076.42 683.045 1076.43 692.994 1070.65L854.735 976.726C875.957 964.402 875.98 933.761 854.777 921.406L555.45 746.976C545.476 741.164 533.145 741.174 523.181 747.003L225.084 921.38C203.922 933.759 203.971 964.361 225.172 976.673L386.963 1070.63C396.934 1076.42 409.249 1076.4 419.199 1070.57L523.528 1009.5Z" fill="#F1F5F9"/>
</svg>
