<svg width="1081" height="1080" viewBox="0 0 1081 1080" fill="none" xmlns="http://www.w3.org/2000/svg">
<path d="M524.257 271.887C534.206 266.082 546.508 266.073 556.467 271.863L1032.62 548.696C1053.95 561.099 1080.7 545.709 1080.7 521.032V332.912C1080.7 321.516 1074.64 310.981 1064.79 305.251L556.128 9.37611C546.166 3.58145 533.857 3.59124 523.905 9.40181L16.5664 305.592C6.74104 311.328 0.700195 321.85 0.700195 333.227V521.632C0.700195 546.33 27.4932 561.718 48.8262 549.271L524.257 271.887Z" fill="#0F172A"/>
<path d="M978.012 883.082C988.049 888.929 1000.47 888.877 1010.45 882.947L1065.04 850.541C1074.75 844.776 1080.7 834.318 1080.7 823.025V698.719C1080.7 687.329 1074.65 676.798 1064.8 671.066L556.132 374.858C546.168 369.056 533.853 369.062 523.896 374.876L16.5664 671.06C6.74104 676.797 0.700195 687.318 0.700195 698.696V823.596C0.700195 834.958 6.72482 845.468 16.5291 851.209L70.976 883.095C80.9531 888.938 93.3063 888.944 103.29 883.111L523.891 637.381C533.851 631.562 546.172 631.554 556.139 637.359L978.012 883.082Z" fill="#0F172A"/>
<path d="M524.228 1009.5C534.191 1003.67 546.523 1003.66 556.499 1009.47L661.519 1070.63C671.46 1076.42 683.745 1076.43 693.694 1070.65L855.435 976.726C876.657 964.402 876.68 933.761 855.477 921.406L556.15 746.976C546.176 741.164 533.845 741.174 523.881 747.003L225.784 921.38C204.622 933.759 204.671 964.361 225.872 976.673L387.663 1070.63C397.634 1076.42 409.949 1076.4 419.899 1070.57L524.228 1009.5Z" fill="#0F172A"/>
</svg>
