<svg height="24" viewBox="0 0 60 24" width="60" xmlns="http://www.w3.org/2000/svg"><g fill="none" fill-rule="nonzero"><path d="m7.7732896 5.21819068c-4.2291458 0-7.75329021 1.77938777-7.75329021 7.14771942 0 4.2529006 2.36973201 6.9311219 7.86249141 6.9311219 6.465235 0 6.87968-4.2236525 6.87968-4.2236525h-3.1327114s-.6716796 2.2742745-3.9380708 2.2742745c-2.6603864 0-4.5738406-1.7823163-4.5738406-4.280492h11.9722266v-1.5676421c0-2.47148116-1.582014-6.28132922-7.316485-6.28132922zm-.1092014 2.00352734c2.5324124 0 4.2588496 1.53858783 4.2588496 3.84460658h-8.7361016c0-2.44812096 2.2534404-3.84460658 4.477252-3.84460658z" fill="#e53238"/><path d="m15.0875524.01984915v16.58122775c0 .941203-.0677354 2.2627601-.0677354 2.2627601h2.9879466s.1072476-.949161.1072476-1.8166017c0 0 1.4762386 2.2904087 5.4902408 2.2904087 4.226906 0 7.098082-2.9103499 7.098082-7.0800328 0-3.8789958-2.637268-6.99880856-7.091258-6.99880856-4.170847 0-5.466888 2.23366235-5.466888 2.23366235v-7.47261584zm7.7532896 7.28986159c2.870398 0 4.695656 2.11272615 4.695656 4.94790046 0 3.04021-2.108112 5.0291247-4.67518 5.0291247-3.0635708 0-4.71613-2.3722544-4.71613-5.0020499 0-2.45045691 1.4828898-4.97497526 4.695654-4.97497526z" fill="#0064d2"/><path d="m38.12902 5.21819068c-6.36243 0-6.770478 3.45496383-6.770478 4.00705487h3.166836s.166068-2.01706492 3.38524-2.01706492c2.09187 0 3.712844.94956912 3.712844 2.7751563v.64979267h-3.712844c-4.929064 0-7.534888 1.4300291-7.534888 4.3319512 0 2.8559082 2.407698 4.4097909 5.661404 4.4097909 4.434296 0 5.862742-2.4299537 5.862742-2.4299537 0 .9665026.075136 1.918919.075136 1.918919h2.815286s-.109202-1.1805499-.109202-1.9358408v-6.5283858c0-4.28057318-3.481502-5.18141972-6.552076-5.18141972zm3.494442 7.36431692v.8663903c0 1.130009-.703106 3.9393681-4.842394 3.9393681-2.26666 0-3.2385-1.1218822-3.2385-2.4231852 0-2.3673269 3.272756-2.3825732 8.080894-2.3825732z" fill="#f5af02"/><path d="m42.976 5.76h3.562l5.113 10.159 5.102-10.159h3.227l-9.292 18.086h-3.385l2.681-5.042z" fill="#86b817"/></g></svg>